/* XPM */
static char *result[] = {
/* columns rows colors chars-per-pixel */
"50 50 78 1 ",
"  c #860300",
". c #8D0400",
"X c #8E0D00",
"o c #970500",
"O c #930D02",
"+ c #9F0E01",
"@ c #9F1200",
"# c #A20D01",
"$ c #BE0301",
"% c #A31402",
"& c #C20401",
"* c #C20B02",
"= c #CC0C00",
"- c #C61402",
"; c #CC1202",
": c #D61B00",
"> c #DC2301",
", c #EB3501",
"< c #EF3A01",
"1 c #CD4B02",
"2 c #CC5604",
"3 c #E65E00",
"4 c #EE5C04",
"5 c #EA6201",
"6 c #F46401",
"7 c #F16D03",
"8 c #FF6D01",
"9 c #F47205",
"0 c #FF7301",
"q c #F07E07",
"w c #FE7C00",
"e c #F68504",
"r c #FF8400",
"t c #FF8C01",
"y c #FF9202",
"u c #FF9C03",
"i c #FFA607",
"p c #FFAA06",
"a c #FFA50A",
"s c #FFAB09",
"d c #FFB109",
"f c #FCA512",
"g c #FFAB13",
"h c #FFB512",
"j c #FFB917",
"k c #FFB41C",
"l c #FFBC1D",
"z c #FFBE23",
"x c #FFB32B",
"c c #EAAB3B",
"v c #FFC129",
"b c #FFC334",
"n c #FFC53A",
"m c #FFC83F",
"M c #D5B75C",
"N c #D4B95D",
"B c #D8B85D",
"V c #E8AD42",
"C c #D4BA60",
"Z c #FFCD57",
"A c #FFCE5B",
"S c #FFD065",
"D c #F8C87B",
"F c #FFD374",
"G c #FFD67A",
"H c #E6CE8B",
"J c #FFD587",
"K c #FFDA8F",
"L c #EAD399",
"P c #FFDD95",
"I c #EBD7A3",
"U c #FFE0A3",
"Y c #FFE2AC",
"T c #FFE7BA",
"R c #FEEBC4",
"E c #FFEDCC",
"W c #FEEFD5",
"Q c #FFF1DA",
/* pixels */
"CCMCCCBMMMMNNNNNNNNNCCCCCCCCCCCCCNNNNCNNNMMMNMMNNN",
"CCCBCCCMNNNMNNNNMMNNCCCCCCCCCCCCCCNNCCNNNMMMNNNNNN",
"CCCCCCCMNNMNNNNNNNNNCCCCCCCCCCCCCNCCCNCNMMMMNNNNNN",
"CCCCCCCMMNMNNNNNNNNmCCCCCCCCCCCCCNNCCCNNNMMMNNNNNN",
"CCMCCNCNNNNNNNNMNNNNNNCCCCCCCNCNCCCCNNNNNMNNMMCCNN",
"CCCCCCNMNNNNNNNMNNNNCCCCCCCCCCCCCNCCNNNMNMMMNNNNNN",
"CCCCCCCNNNNMNNMNNNNNCCCCCCCNCCCCCCCNNNNNNNNCNNCCNN",
"CCCCCCCNNNMMMMMMNNNNCCCCCCNCCCCCCCNNNNNNNNMNNNCCCC",
"MMCCCCCCMMMMMMMMNNCCCCCCCCCCCCCCCNCCNNNNNNCCCCCCCC",
"MCCMCCCMCCMMMMMMNNCCIQQWWWWWQQWCCCCCNNNNNCNCCCCCCC",
"CCCCCCCCNNMMMNNNNNQQQGddddddddhWQNCCNNNNCCCCCCCCCC",
"CMMMCMCMNNNNNNNNRQQQQyyypepeuedhdTQCNNNNCCCCCCCCCC",
"CCMCCCCMNMNNNNNQQQQQQuyyyyyyeeueyddQNNNMCNCNCCCCCC",
"CCCCCCCCMMNNNNQQQQQQWiuyyyyyuudddddpJNNMNNCCCCCCCC",
"CCCCCCMMNMNNNQQQQQQQlbldueeuudddsytpiiMMNCCCCCCCCC",
"CCCMCCCMNNNNWWQQQQQWPAvhddssddduyyyepiZNNCCCCCCCCC",
"CCCCCCNMCCNNQQQQQQQRYFbjd9ddduyyyyytwaiQNCCCCCCCCC",
"CCCCCCNCCMNQkQQQQERRUAvdd-ddddyyyyyyr0iiNCCCCCCCCC",
"CCCCCNCCNCNQdQQQSPYUGZlsO-- dddyyyyy38aixCCCCCCCCC",
"CCCCCCCCCMQdyydlmZSZnljd4. dddddyyyy388isCCCCCCCCC",
"BCBCCCCMCCWsyydQlzvljddd<d&ddddsyyyy338asDCCCCCCCC",
"CCCMCCCCMCQsyyJKdhhhhdddddddddddsyyyr388asCCCCCCCC",
"CCCCCCCCCQhyyyddddd ddddddddddddeyyyr388iiCCCCCCCC",
"BCCCCMCCCQsyyyddX>$.$@dddddddsa7$ 5e7388iiCCCCCCCC",
"CCBCCCBCCQsyyydddd$.2dddddddddu..  y5388feCCCCCCCC",
"BCCCCCCBCQdtyydddd.;XddsddddddywX$yt3388pcCCCCCCCC",
"CCBCCCBCCQsryyydd%ddqdddddddsdy+yy r3388ppCCCCCCCC",
"CBCCCCBCNQartyyddddddddddddddyyiyyr33388fuCCCCCCCC",
"CCCCCCCCCCasryyyddddddddddddyyyyyyr33387piNNCCCCCC",
"CCCCCCCCCMgawryyyddddddddddyy6yyyr33338iiiCNCCCCCC",
"CBCCCCCCCCQi0w5yyyydd=dddyyyy>yye533387dsCCCCCCCCC",
"CCCCCCCCCCLii0w3tyy.:$$$1yy#;&$-5333387pfCCCCCCCCC",
"CCCCCCCCCCMfe8803ryyt$ yyyyyo. 3333388iiVCCCCCCCCC",
"BCCBMCCCCMCHff88333r,X$yttrr>@*533388iiiCCCCCCCCCC",
"CCCCCCCCCCMMJia88886530-005333353388wiaCCCCCCCCCCC",
"CCCCCCCCMCCCMiaa88833353333333333888aaaCCCCCCCCCCC",
"CBCCCCCMNNNNMNppi88853353333333888aiiiCCCCCCCCCCCN",
"CCBCCCCCNNNNMNNiii888888333588888ipaiCCCCCCCCCCCCC",
"BCBBBCCMNNNNBNNNsiia08978888888iiiiNCCCCCCCCCCCCCC",
"BCBCCCCMNNNNNNNCCNaspiddituaaiiiiiCCCCCCCCCCCCCCCC",
"NNMNNNNNNNNNNNNCNNNNddddiippdddhCCCCNNNNCCCCCCCCNC",
"NNNMNNMNNNNCCCCNNNNNNNNciipdNCCCCCCNNNNNCCNNNCNNNC",
"NNMNNNNNNCCNCCNNNNNNNNNNNNNNNNCCCCNNNNNNNNNNCCNNCC",
"NNMNNNNNNCCCCCNNNNNNNNNNNNNNNNCCCCNNNNNNNNNNCCNNCC",
"NMMMMNNNCCCCCCCNNNNNNNNNNNNNCCCCCCCCNNNNMCCCCNNCNC",
"NMMMMNNNCCCCCCNNNNNNNNNNNNNNCCCCCCCCNNNNCCMCNNCNNN",
"MMMMNMCCCCCCNNNNNNNNNNNNNCNNCCCCCCCCNNMMMCMMMCMCCN",
"MMMMNZCCCCCNNNNNNNNNNNNNNCCNCCCCCCCCNNMCCMCMCCMCCC",
"MMNNNNNNNNNNNNNNNNCNCNNNNNCCCCCCCCCCCCCCCCCCCCCCCC",
"NNNNNNNNNNNNNNCNCNNCNNNNNNCCCCCCCCCCCCCCCCCCCCCCCC"
};
