/* XPM */
static char *result[] = {
/* columns rows colors chars-per-pixel */
"50 50 188 2 ",
"   c #020300",
".  c #080701",
"X  c #060902",
"o  c #0A0A02",
"O  c #130C04",
"+  c #0B1303",
"@  c #131304",
"#  c #1E1603",
"$  c #151D04",
"%  c #13130A",
"&  c #1B1B0C",
"*  c #360F03",
"=  c #211A03",
"-  c #142304",
";  c #1C2304",
":  c #1A2C04",
">  c #1C2B0A",
",  c #1E3504",
"<  c #1F3804",
"1  c #362404",
"2  c #392604",
"3  c #223204",
"4  c #223C04",
"5  c #292717",
"6  c #2C321C",
"7  c #35351B",
"8  c #2F2F27",
"9  c #373727",
"0  c #432C04",
"q  c #4C2804",
"w  c #4B3104",
"e  c #513403",
"r  c #4A3715",
"t  c #294406",
"y  c #2B4C04",
"u  c #2F5204",
"i  c #355702",
"p  c #355C03",
"a  c #376104",
"s  c #3D6A02",
"d  c #374222",
"f  c #4E421F",
"g  c #6D4605",
"h  c #476E06",
"j  c #437501",
"k  c #447900",
"l  c #487E01",
"z  c #44453C",
"x  c #554D31",
"c  c #5A5231",
"v  c #615228",
"b  c #665836",
"n  c #736636",
"m  c #5E5B4C",
"M  c #61604E",
"N  c #73784B",
"B  c #6B695E",
"V  c #825404",
"C  c #A24504",
"Z  c #9E6502",
"A  c #856810",
"S  c #A56C0E",
"D  c #CD4000",
"F  c #D34200",
"G  c #D84301",
"H  c #DE4B00",
"J  c #E64901",
"K  c #E94C01",
"L  c #EF5B01",
"P  c #F25D02",
"I  c #E86302",
"U  c #F66401",
"Y  c #F76801",
"T  c #FD7301",
"R  c #FE7C02",
"E  c #4B8201",
"W  c #538706",
"Q  c #559101",
"!  c #5E9A06",
"~  c #609D08",
"^  c #6CAD09",
"/  c #6DB004",
"(  c #74BB05",
")  c #74B908",
"_  c #7BC505",
"`  c #7FCA06",
"'  c #7DC60A",
"]  c #BC862E",
"[  c #B98532",
"{  c #E98304",
"}  c #FF8703",
"|  c #FE8A04",
" . c #FE9202",
".. c #D5A903",
"X. c #FFA400",
"o. c #FFA903",
"O. c #F6A009",
"+. c #FFB905",
"@. c #C39729",
"#. c #C6953D",
"$. c #F08B2D",
"%. c #F19932",
"&. c #80CB05",
"*. c #81CD08",
"=. c #84D206",
"-. c #84D209",
";. c #8DDF0A",
":. c #87CE16",
">. c #8BD01A",
",. c #FFC505",
"<. c #FFCE03",
"1. c #FFCF0D",
"2. c #FFD20B",
"3. c #FDC81A",
"4. c #FFD118",
"5. c #FFDA19",
"6. c #FDCB27",
"7. c #FCD22E",
"8. c #FBD437",
"9. c #998C50",
"0. c #A88A4C",
"q. c #B29C52",
"w. c #968D68",
"e. c #B2AF77",
"r. c #AFBA7A",
"t. c #CA9C4F",
"y. c #D5A555",
"u. c #D6A758",
"i. c #DDB154",
"p. c #D5B75C",
"a. c #D4B95D",
"s. c #D8B95D",
"d. c #F0B94B",
"f. c #E8AB5A",
"g. c #C3AE69",
"h. c #CCB564",
"j. c #D4BA61",
"k. c #C4B77B",
"l. c #EEAB61",
"z. c #B7DF67",
"x. c #F2CC43",
"c. c #FDD845",
"v. c #EDCC5C",
"b. c #FDD456",
"n. c #FEDA52",
"m. c #FEDC5B",
"M. c #DBC377",
"N. c #FFDE64",
"B. c #FEDF6A",
"V. c #EFD178",
"C. c #FEE173",
"Z. c #96A188",
"A. c #A8A79C",
"S. c #C6BD94",
"D. c #CCCB8B",
"F. c #DFCD8B",
"G. c #E6D18D",
"H. c #FFDD8A",
"J. c #E4CE91",
"K. c #E7D493",
"L. c #DEF296",
"P. c #FFE382",
"I. c #FEE68B",
"U. c #E9EB9A",
"Y. c #FFE994",
"T. c #FDEB9D",
"R. c #E5F69D",
"E. c #E9F69E",
"W. c #CDC5AC",
"Q. c #E8DBAC",
"!. c #EAF5A0",
"~. c #F8F2A7",
"^. c #FEF1A7",
"/. c #FEF2B3",
"(. c #FEF3BD",
"). c #C9C7C2",
"_. c #F1E7C8",
"`. c #FFF4C7",
"'. c #FFF4CC",
"]. c #EAE6D3",
"[. c #FFF6D4",
"{. c #FCF5DC",
"}. c #FFFAE5",
"|. c #F9F6E9",
" X c #FCF9EE",
".X c #F6F6F4",
"XX c #FDFCF3",
"oX c #FFFFFE",
/* pixels */
"j.j.j.a.a.a.a.a.a.a.a.a.a.a.a.a.a.a.a.a.a.M.a.a.h.a.j.a.j.h.a.a.j.a.j.j.a.h.a.j.a.a.p.a.p.p.a.h.a.a.",
"j.a.a.a.a.a.p.a.a.a.a.s.a.s.a.a.a.a.j.j.a.a.a.a.a.a.j.j.h.a.j.j.j.j.j.j.a.a.j.a.a.h.p.a.h.a.a.a.a.a.",
"j.j.j.a.a.a.p.a.p.s.p.p.s.s.a.a.j.j.j.j.M.a.j.j.a.a.a.j.Z w j.j.a.a.j.j.a.a.a.a.a.a.a.a.a.a.a.j.j.a.",
"j.j.j.a.a.a.a.p.p.s.s.s.s.a.a.a.z.j.j.j.j.j.j.j.M.a.h.c Z f q.a.a.h.j.j.a.a.a.a.p.p.h.p.a.a.j.a.j.j.",
"j.s.a.a.a.a.a.a.p.s.p.p.a.a.a.a.s.s.j.j.j.j.j.j.j.a.j.[ g e j.j.a.j.j.a.a.a.p.a.a.a.a.j.a.a.h.a.a.h.",
"j.s.a.a.a.a.p.a.p.p.p.s.a.a.j.a.j.s.j.j.M.v.<.2.<.5.c.Z X w <.2.<.j.j.j.a.a.a.a.p.x j.a.j.a.a.j.a.j.",
"j.j.a.a.a.a.p.p.p.p.p.p.a.a.a.a.j.j.j.v.2.2.oXoXoXoXo Z e   oXoXoX<.2.G.a.a.a.a.y.Z # a.j.a.a.j.j.j.",
"j.j.a.a.s.a.a.s.p.p.p.p.p.a.a.a.j.j.2.B..XoX XXXXXoX[ e e XXXXXXXXoXoX4.2.a.w.u.Z w 2 a.j.h.a.j.j.j.",
"j.j.a.j.a.p.a.a.a.a.a.a.a.a.a.a.x.<.oX].}.}.}.}.}.r Z   w }.}.}.}.}.}.oXoX  y.g 0 = n a.a.j.a.j.j.j.",
"j.j.j.a.p.p.a.a.a.a.a.p.a.a.a.<.4.oXB k [.{.{.'.].y.e e ].[.[.[.[.[.[.'.  #.e e = 6 a.a.a.a.a.j.a.j.",
"j.a.a.a.a.p.a.a.a.a.p.p.a.a.<.b.oX(.'.&.W.(.'.`.u.Z   # `.  Z (.`.`.'.# Z e e = @.a.a.a.a.M.a.a.a.j.",
"j.a.a.a.a.a.a.a.a.a.p.p.a.V.1.oX^.^.^.N   ^.^.. [ w e Z Z w w /.^.^.u.Z w e = oX<.j.a.a.a.a.h.a.j.j.",
"j.a.a.a.a.a.j.a.a.a.a.a.a.<.oXY.Y.Y.Y.  $ I.Y.y.Z w w w # X Y.Y.K.i.V   0 O Y.T.oX,.a.j.a.j.j.a.j.j.",
"j.j.a.j.a.a.a.a.a.a.a.a.,..XC.P.P.P.P.  + P.t.Z w e = # I.P.P.  S e e =   b h.o > oX,.j.a.a.M.a.j.j.",
"j.j.j.j.a.a.a.a.a.p.a.a.,.oXN.B.N.B.B.r.  o u.w 2   0.N.N.N.r Z e e =   B., <   4 oX,.j.a.a.j.j.j.j.",
"j.j.j.j.a.j.a.a.a.a.p.,.oXn.n.n.m.n.c.r.:.&.X 1 1   , X X ] V w 2 = e e e e e e 4 . oX,.M.j.j.j.j.j.",
"j.j.p.j.j.j.j.p.a.a.a.,.oX8.8.8.8.c.U.&.&.y   O   5   0.Z e   = = = = # = = # # - k oX+.j.M.a.a.j.j.",
"j.j.j.j.j.j.p.p.p.a.d.oXm.7.7.7.6.U.&.&.+     D.&.&.&.W e . = X o     s   k   s - ` % H.j.a.a.a.j.j.",
"j.j.j.j.j.p.p.j.a.p.X.oX6.,.3.3.E.&.&.&.- U.&.` &.&.j k = = h <   j   j k (   t >.R.E.oXo.a.j.j.j.j.",
"j.p.j.j.p.h.j.j.a.a.+.oX,.A 9 :.&.&.&.&.&.&.&.` 4 j k ; O   , p k a   k l   R.D.7 R.R.oXo.a.M.j.j.j.",
"h.j.j.j.j.p.j.p.a.a.X.oX..R.&.&.&.&.&.&.&._ u       l 4 k k k k   j l 4 @ o ~.X !.  &.oXX.j.j.j.j.j.",
"p.j.j.j.j.a.j.p.a.a.X.oXX.e.&.&.&.&.=.k ; u k l     X : j l k k k k ` ` ` ` ` ;.  -.  .XX.j.j.j.j.j.",
"j.p.j.p.j.j.a.a.a.a.X.  &.Z.&.&.y &.&.&.` ` Q s k 3   ; l k k   k k k ,     *.&.  P.  |.X.j.j.j.j.j.",
"j.j.j.j.j.j.a.a.a.X / k o oXO s ` &.&.&.` `   k k l l   X k k j l k k k j k j _ . P.% _.X.j.j.j.j.j.",
"p.j.u.j.j.j.j.g.` k O.oX1 oXJ X ` ^     & k k k   a k k k k 4 k j k   , k k i k.I.C.+ Q. .a.M.a.j.j.",
"j.p.j.s.j.j.c ^   a. .d   A.z u 8 |.* J   k k k k p &.&.&.k   4 k k k ` `   y k 4 #.  J.O.a.a.a.j.j.",
"j.j.j.j.j.g.:.  a.a.| ~.` &.k `   {._.Q.y =.` ` j ~ &.&.&.k 4 4 u k   ` k &._ #.  { | F.$.a.a.a.j.j.",
"j.j.s.j.j.&.o j.a.a.j.  =.&.l ` ^ - t + ` -.  ` k &.&.&.k - 3 4 3 k ` k `   -.! T R M. .a.a.p.M.j.j.",
"j.j.j.j.= _ s.j.a.j.a.| ` l ` &.` *.j &.&.  + . m ` ` t l k 4 4 j i k ` &.&.o   g Y j.| j.M.a.a.j.j.",
"j.j.j.a.8 k j.p.a.j.j.R.` + ` &.&.&.&.&.  `   a.) ` ` k k k 4 4 4 k   ^   &.*.U   $.M.%.j.j.a.a.j.j.",
"j.j.j.j.9 k j.. e.8 R.&.=.&.&.&.` ` &.$ &.o a.  ` ` ` k k k   - : O j P *.L *.X C h.| j.j.j.j.j.j.j.",
"j.j.j.a.  ( N &.&.&.&.&.&.&.&.` ` ` _   s.a.X &.` ` k k s , J t 4 K     J H I :.j.} f.j.j.j.j.j.j.j.",
"a.j.j.j.j.S.&.&.&.&.&.&.  k &.&.k   a.f s.  &.&.k E E X . G F   D   F $ F   Q 9.j.T M.a.a.M.a.a.j.j.",
"j.a.j.a.j.  &.*.&.&.*.&.&.j k k k s.  7 $ &.k   D F F D D D G G D   D D   k . j.R j.j.j.a.j.a.a.j.j.",
"j.j.j.h.a.z.` ` &.&.  &.&.&.&.&.` ` X + &.j D D D D D D D D D D D D D   k x j.R j.j.j.j.M.j.a.a.j.j.",
"a.j.a.a.a.L.&.` &.&.&.&.&.&.'     j l &.h F D D D D D D D D D D D D D ` 5 j.T j.j.j.j.j.a.j.j.j.j.j.",
"j.j.a.a.j.v         *.` &.&.&.o J.M.&.  k ` q D D D D D D D D D D D ^ : T T j.j.M.a.h.a.a.a.a.a.h.a.",
"j.j.h.a.j.a.oXoXoXoXoX.X  &.$ M  X  &.  f.l ` # D D D D D D D t.j.j.*.T j.j.j.j.a.a.a.a.a.a.a.h.j.a.",
"a.j.a.a.a.a.q.oXoX  oXB oXoXoXXX X&.( a.i.T k ` j.j.j.j.j.j.j.l.Y   l j.j.j.j.j.a.a.a.a.a.j.a.h.j.j.",
"j.j.j.a.a.a.a.  oXoX9 oX8   )..X=.&.k a.a.a.j.k -.T T P T Y T j.j.-.  j.j.j.j.j.a.a.a.a.M.a.a.a.j.j.",
"j.a.j.a.a.a.a.9 oXoXoXoXoXoX  &.` s a.a.j.j.a.+ ` 5 j.j.j.j.j.j.j.` M.a.a.h.a.a.h.a.j.j.j.j.j.j.j.j.",
"a.a.a.a.a.h.j.  &.) 4 ! &.&.&.&.` + a.a.a.a.a.a.s ` j.j.j.j.j.a.X s a.a.a.a.a.a.a.a.j.a.a.a.a.h.a.a.",
"a.a.a.a.a.a.j.a.  ` &.` &.`     E ` - a.a.a.a.a.j.E ` j.j.j.j.6 Q M.a.h.a.a.p.a.a.a.a.a.a.j.a.a.a.a.",
"p.a.a.a.p.j.j.a.j.    j.a.a.a.a.a.j.s - a.a.a.a.a.a.E ` + X ` s X M.a.a.a.a.a.a.a.a.a.a.j.a.j.a.a.h.",
"p.a.a.p.a.j.j.j.a.j.X a.a.a.a.a.a.a.a.M.a.a.a.a.j.a.a.X < X X a.a.a.a.a.a.a.a.a.p.p.h.j.p.h.p.p.a.j.",
"a.a.a.a.h.v.j.j.a.j.M.j.a.a.a.a.a.a.a.a.a.a.a.a.a.a.a.a.a.j.a.M.a.M.a.a.a.a.p.p.p.p.p.p.j.j.p.j.j.a.",
"a.a.a.a.j.j.j.a.j.a.a.a.s.s.a.a.a.a.a.a.a.a.a.a.a.j.a.a.j.j.a.a.j.j.a.a.a.a.a.a.p.j.j.j.j.p.j.j.a.j.",
"p.a.a.j.j.j.j.j.j.j.a.a.a.p.a.a.a.a.a.a.a.a.a.a.a.j.j.j.a.a.h.M.j.a.j.h.a.a.a.p.p.j.p.p.h.j.j.p.j.a.",
"p.p.p.s.j.j.j.j.j.s.s.s.a.a.a.s.a.a.j.a.a.a.j.j.j.j.j.j.j.j.j.v.j.M.j.j.j.a.a.a.a.a.a.a.j.a.a.j.a.a.",
"p.p.p.p.j.j.j.j.j.s.s.a.a.a.a.a.a.a.a.a.a.a.a.a.j.j.j.j.j.j.j.j.a.a.a.h.a.a.a.a.a.a.a.j.a.a.a.a.a.a."
};
