/* XPM */
static char *result[] = {
/* columns rows colors chars-per-pixel */
"50 50 104 2 ",
"   c #D3B75B",
".  c #D5B65A",
"X  c #D4B75A",
"o  c #D5B65B",
"O  c #D4B75B",
"+  c #D5B75B",
"@  c #D6B65A",
"#  c #D7B65B",
"$  c #D6B75B",
"%  c #D7B75B",
"&  c #D3B75D",
"*  c #D1B75E",
"=  c #D3B75E",
"-  c #D3B75F",
";  c #D6B75C",
":  c #D2B85B",
">  c #D3B85B",
",  c #D5B85A",
"<  c #D4B85B",
"1  c #D5B85B",
"2  c #D6B85B",
"3  c #D3B85C",
"4  c #D2B95C",
"5  c #D3B95C",
"6  c #D3B85D",
"7  c #D2B95D",
"8  c #D3B95D",
"9  c #D2BA5C",
"0  c #D3BA5C",
"q  c #D2BA5D",
"w  c #D3BA5D",
"e  c #D3BB5D",
"r  c #D1B85E",
"t  c #D1B85F",
"y  c #D2B95E",
"u  c #D2B85F",
"i  c #D3B85F",
"p  c #D2B95F",
"a  c #D3BA5E",
"s  c #D3BB5E",
"d  c #D3BA5F",
"f  c #D4B85C",
"g  c #D5B85C",
"h  c #D4B95C",
"j  c #D5B95C",
"k  c #D4B85D",
"l  c #D4B95D",
"z  c #D5B95D",
"x  c #D6B85C",
"c  c #D7B85C",
"v  c #D6B95C",
"b  c #D7B95C",
"n  c #D7B95D",
"m  c #D4BA5C",
"M  c #D4BA5D",
"N  c #D5BA5D",
"B  c #D4BB5D",
"V  c #D5BB5D",
"C  c #D6BA5C",
"Z  c #D7BA5C",
"A  c #D6BA5D",
"S  c #D7BA5D",
"D  c #D4B85E",
"F  c #D4B95E",
"G  c #D4B85F",
"H  c #D5B95F",
"J  c #D6B85E",
"K  c #D4BA5E",
"L  c #D4BB5E",
"P  c #D5BB5E",
"I  c #D4BA5F",
"U  c #D4BB5F",
"Y  c #D6BA5E",
"T  c #D7BA5E",
"R  c #D6BB5E",
"E  c #D3BC5E",
"W  c #D5BC5E",
"Q  c #D8B95C",
"!  c #D8B95D",
"~  c #D9B95D",
"^  c #D8BA5C",
"/  c #D2B960",
"(  c #D3B960",
")  c #D3BA60",
"_  c #D3BA61",
"`  c #D4B860",
"'  c #D4B960",
"]  c #D5B960",
"[  c #D4B961",
"{  c #D5B961",
"}  c #D4BA60",
"|  c #D4BB60",
" . c #D5BB60",
".. c #D4BA61",
"X. c #D5BA61",
"o. c #D4BB61",
"O. c #D6BA61",
"+. c #D4BA62",
"@. c #D5BA62",
"#. c #D4BB62",
"$. c #D5BB62",
"%. c #D7BB62",
"&. c #D5BC62",
"*. c #D5BC63",
/* pixels */
"G G G O.&.o._ O.O.) ) V 5 $ j B B B m m m m w w w ) ) ] ] G G ] ] H m m G G = = G G G ] ] ) &._ / O.",
"( ) ] ] ) &._ O.O.O.] ] ] m A R B B m m 5 5 = G ] ) ) ] ] G G 3 5 5 5 5 5 5 ] ] ..o.o.t p ) ) ) p ) ",
"( ) ] ] ) &._ O.O.] G ] ] > j B B B m m 5 5 G ] O.) ) ] ] G G 3 5 5 5 5 5 5 G G ( ( ( t p ) ) ) p ) ",
"G G ] ] ..) / ..$.{ G G G + 2 x M M m m j j $..._ ) ) ( ( G G G D D 2 2 5 5 = = i G G 7 s ) ) ) ( ) ",
"] ] ] ] o.) p ) o.O.G ] ] 1 1 g m m m m m m &.o.) ) ) ) ) G G G G D $ $ 5 5 = = G G G 4 B ) ) ) ) ) ",
"O.O.] ] o.) t p ) O.G O.O.4 4 5 m m m m m m &.o.) ) ) ) ) G G G G D $ $ 5 5 = = G G G 4 B ) ) ) ) ) ",
") ) o.o.o.) / ) ) ] ] ) ) 5 5 j 5 N h m o.o.o.o...) ) ) ) ) ) G G D : : G G G G z m m B B O.O.) ) ) ",
") ) o.o.o.) / ) ) ] ] ) ) 5 5 j 5 N h m o.o.o.o...) ) ) ) ) ) G G D : : G G G G z m m B B O.O.) ) ) ",
"] ] Y O.O.O.{ ] ] ] ] O.O.M V < c c 5 V o...o.o...) ) ) ) p ) 8 5 f G G r ) ) ) ] ] ] ) ) w w w w ) ",
"] ] z ] O.O.O.] G G G O.O.M V O $ $ 5 V o...o.o...) ) ) ) p ) 8 5 f G G r ) ) ) ] ] ] ) ) w w w w ) ",
"p p 4 i O.O.@.' * G G ) ) j h j x O g B o...) ) _ ....) ) ( ) l h l ] ] ( ' ) ..( p ( ' ' w w w w a ",
"( ( w ( ] ] +.o./ G G ) ) j : m V > g B o.o.) ) ) o.o.) ) ) ) M m z ] ] ] ] ) o.) ( ( ] ] w w w w w ",
"o.o.L o.G G _ &.&.G G ) ) j : m V > g B o.o.) ) ) o.o.) ) ) ) M m z ] ] ] ] ) o.o.o.o.] ] w w w w w ",
"w w Y O.G ] X.o.o.O.O.O.G G G G m m 3 m &.) ) ) ) o.o.) ) 5 5 5 5 5 ) o.o.o.o.o.o.o.o.] ] v w ) ) 5 ",
"w w f G G ] X.o.o.O.O.O.G G G 6 : : m V &.) ) ) ) o.o.) ) 5 5 N V P o.*.o.o.o.o.o.o.o.] ] v w ) ) I ",
"S % m m ] ] ] ] ] ] ] ) ) ] G & : : m m o.o.o.o.o.o.o.m m B S ; f q o.o.o.o.o.o.o.o.o.) ) ) ) ] ] l ",
"S % m m ] ] ] ] ] ] ] ) ) ] G = 5 5 m m o.o.o.o.o.o.o.m m B S n v a o.o.o.o.o.o.o.o.o.) ) ) ) ] ] f ",
"S $ M M ] ] ] ] ] ] ] ( ( ] G D j j m m ....o.o.o.| | C C B S ! A L o.o.o.o.....) } | ) ) ) ) ] ] z ",
"A 5 ) ) ] ] ] ] ] ] ] ] ] ] ] F 5 5 m m ) ) o.o.| B B ^ ^ V V ! A L o.o.o.o.) ) 4 w B o.o.o.o.o.o.w ",
"A 5 ) ) ] ] ] ] ] ] ] ] ] ] ] F 5 5 m m ) ) o.o.| B B ^ ^ V V ! A L o.o.o.o.) ) 4 w B o.o.o.o.o.o.L ",
"S B ) ) G G G G G ] ] G G ] ] ] 5 N w w B B o.o.o.| Z ~ A B B ..p o.o.o.....] ] O.G O.o.o.o.o.) ) L ",
"g 4 ) ) G G G G G ] ] O.O.] ] ] 5 N w w B B o.o.o.| Z S s B B ..p o.o.o._ #.] ] O.G O.o.o.o.o.) ) y ",
"X ..o.o.] = ' ) ) O.O.o.o.] ] F 5 5 5 5 ^ ^ B B L o.o.o.o.B B $.) $.o.o.o.o.] ] ..) p o.o.o.o.o.o.o.",
", ( ) ) ] = [ o.o.O.O.) ) ] ] F 5 5 m m ^ ^ S S Y o.o.o.o.B B $.) $.o.o.o.o.] ] ( ) ) o.o.o.o.o.o.o.",
"1 y p p ` - +.&.&.O.O.p p ] ] F 5 5 V V Q Q ! ! T | | | | L L #.) #.o.o.o.o.] ] ( ) ..o.o.o.o.o.o.o.",
"5 5 p p G ] X.$.$.O.O.) ) ] ] H m m B B c c S S S B B B B ] ] ..o.o.$.$.) ) O.O.O.O.O.o.o.o.o.o.o.o.",
"5 5 o.o.G ] _ ) ) G G ) ) ] ] H m m B B c c B B B B B B B %.%.o.o...) ) p p O.O.O.O.O.o.o.o.o.o.o.o.",
"( ) o.o.o.o.o.o.o.m m ] ] 5 5 5 j V o.o.m h B B L o.o.&.&.&.....o...] ] ) ) ] ] ..o.o.o.o.o.o.o.o.o.",
"( ) o.o.o.o.o.o.o.m m ] ] 5 5 5 j V o.o.m h B B L o.o.&.&.&.../ p ( ] ] ) ) ] ] ..o.o.o.o.o.o.o.o.o.",
"( ) ) ) ) ) ( o.( 9 > 5 5 = ] u ) ) M M m h M M M w w o.o.o.( 5 5 k G G G G p ) ] ] ] ) ) o.o.o.o.o.",
") ) ) ) ) ) / o.p 0 O 5 5 G O.G ) ) m m m m m m m w w o.o.o.( 5 5 f G G G G p ) ] ] ] ) ) o.o.o.o.o.",
") ) ) ) ) ) / o.p v @ 5 5 ] %.] ) ) m m m m m m m w w o.o.o.( 5 5 f G G G G p ) ] ] ] ) ) o.o.o.o.o.",
"o.o.) ) ] ] [ ....$ # $ $ O.O.O.P m m m G G B B L o.o.o.o...$.M m z G G G G G G ] ] ] ......&.) ) ..",
"o.o.&.&.] ] / p p + 9 $ $ O.O.O.P m m m G G B B L o.o.o.o...$.M m z G G G G G G ] ] ' p p ..&.) ) ..",
"o.o.o.o.B B I G = w w V 5 B B U ) ) ] ] G G 4 w L o.o.o.o.o.o.o.o...) ) ) ) ) ) G G G p p p o.B B | ",
"o.o.o.o.B B I G = 1 1 j m B B U ) ) ] ] G G 4 w L o.o.o.o.o.o.o.o...) ) ) ) ) ) G G G p p p o.B B | ",
"o.o.) ) w w L J o . O 5 5 w w a ) ) ( ( w w e B B w w L L o.o./ / / ) ) ) ) ) ) d I K w w s L B B ) ",
"o.o.) ) w w L j . .   5 5 w w a ) ) ) ) w w B B B w w B B o.o.) ) ) ) ) ) ) ) ) L B B w w B B B B ) ",
"o.o.) ) w w E w   .   5 5 w w a ) ) ) ) w w B B B w w B B o.o.o.o...) ) ) ) ) ) L B B w w B B B B ) ",
") ) o.o.) ) _ o.o.] ] ] ] ) ) ) o.o.o.o.B B B B L o.o.o.o.o.o.o.o.| B B m m 5 M B B B B B B B ) ) M ",
") ) o.o.) ) _ o.o.] ] ] ] ) ) ) o.o.p p B B B B L o.o.o.o.o.o.o.o.| B B m m 5 M B B B B B B B &.&.I ",
"o.o.) ) o.o.#.&.&.) ) ) ) ) ) ) p ) ..p o.o.B B B B B B B W W W W W V V w w w w } o.o.B B ) ) o.o.o.",
"o.o.o.o.o.o.......o.o.) ) ) ) ) p ) ) ) o.o.B B B B B B B S S B B B j j w w w w ( ( ( 0 0 ) ) o.o.o.",
"o.o.$.$.o.o...) )  . .d d ( ( ( p ( ( ..o.o.U U U B B B B b b w w w k l a a a a i i i 7 7 a a ......",
"o.o.o.o.o.o.o.o.o.B B B B ] ] ( ( ( ] ] o.o.o.o.| B B w w m m w w w ` O.) ) ) ) ' ] ' ) ) m m ) ) ..",
"o.o.o.o.o.o.o.o.o.B B B B O.O.X.o.o.] ] o.o.o.o.| B B w w m m w w w O.%.) ) ) ) ..O.X.) ) m m ) ) ..",
"o.o.o.o.o.o.U B B V V V V o.o.o.o.o.] ] o.o.o.o.o.o.) M h 5 M M m M o.o.) ) ] ] ] ] ] m m 5 5 4 4 j ",
"o.o.o.o.o.o.U B B V V V V o.o.o.o.o.] ] o.o.o.o.o.o.) j N A j h m M o.o.) ) ] ] ] ] ] m m 5 5 B B M ",
"] O.o.o.B B B V V V V B B o.o...) ) ( ) o.o.o.o.| w 4 5 5 m m m m m m m ) ) p p ( ) ) G G 5 5 w w p ",
"] O.o.o.B B B V V V V B B o.o...) ) ( ) o.o.o.o.| w 4 5 5 m m m m m m m ) ) ) ) ) ) ) G G 5 5 w w ) "
};
