/* XPM */
static char *result[] = {
/* columns rows colors chars-per-pixel */
"50 50 246 2 ",
"   c black",
".  c #000001",
"X  c #010101",
"o  c #030201",
"O  c #000002",
"+  c #040000",
"@  c #060100",
"#  c #000005",
"$  c #020407",
"%  c gray2",
"&  c #090101",
"*  c #0A0704",
"=  c #090806",
"-  c #0E0D07",
";  c #010109",
":  c gray3",
">  c #160301",
",  c #110702",
"<  c #1F0502",
"1  c #100E07",
"2  c #17150B",
"3  c #191109",
"4  c gray9",
"5  c gray12",
"6  c #270704",
"7  c #281204",
"8  c #22170C",
"9  c #381907",
"0  c #231F11",
"q  c #251C15",
"w  c #261E16",
"e  c #2B2206",
"r  c #3C3009",
"t  c #262211",
"y  c #292312",
"u  c #2A2219",
"i  c #2F231A",
"p  c #2A241A",
"a  c #2B251C",
"s  c #312C17",
"d  c #30251C",
"f  c #373118",
"g  c #383018",
"h  c #02052F",
"j  c #12152F",
"k  c #020633",
"l  c gray14",
"z  c gray18",
"x  c #3C3326",
"c  c gray19",
"v  c #3A3A3A",
"b  c gray24",
"n  c #4A0703",
"m  c #580802",
"M  c #590802",
"N  c #5B0802",
"B  c #5F0C02",
"V  c #590904",
"C  c #650903",
"Z  c #630C06",
"A  c #780D05",
"S  c #651704",
"D  c #751B03",
"F  c #41251B",
"G  c #463E1F",
"H  c #483F24",
"J  c #534A25",
"K  c #5C502A",
"L  c #5C512A",
"P  c #49413A",
"I  c #6C4626",
"U  c #6D4726",
"Y  c #6F4926",
"T  c #704E2E",
"R  c #7C512B",
"E  c #050B64",
"W  c #050D6D",
"Q  c gray27",
"!  c #7C5F47",
"~  c #970E04",
"^  c #960F06",
"/  c #A20F05",
"(  c #A30F05",
")  c #A41205",
"_  c #A21008",
"`  c #AA2007",
"'  c #B12305",
"]  c #B52805",
"[  c #B72805",
"{  c #A43F07",
"}  c #B44006",
"|  c #B84F07",
" . c #80532C",
".. c #85572E",
"X. c #826E36",
"o. c #916339",
"O. c #95683E",
"+. c #81703B",
"@. c #89783C",
"#. c #89783D",
"$. c #88783E",
"%. c #D24805",
"&. c #C95003",
"*. c #C85705",
"=. c #DC5304",
"-. c #EF6802",
";. c #F06801",
":. c #976B40",
">. c #9F7348",
",. c #977456",
"<. c #BD9707",
"1. c #D39306",
"2. c #F48002",
"3. c #E89E08",
"4. c #F79006",
"5. c #D5AA07",
"6. c #F9A502",
"7. c #FAA902",
"8. c #FDBA03",
"9. c #FDBC04",
"0. c #FFCC02",
"q. c #F5C61B",
"w. c #958244",
"e. c #978645",
"r. c #9A8846",
"t. c #9D8B48",
"y. c #A28D48",
"u. c #A28E49",
"i. c #A38F4A",
"p. c #AC964A",
"a. c #AC974A",
"s. c #AF964C",
"d. c #B19950",
"f. c #BDA155",
"g. c #AC916B",
"h. c #BF9067",
"j. c #C6AD56",
"k. c #C1AA58",
"l. c #CCB35C",
"z. c #D4B75B",
"x. c #D5B75B",
"c. c #D6B65A",
"v. c #D7B65B",
"b. c #D6B75B",
"n. c #D3B75D",
"m. c #D3B75E",
"M. c #D3B75F",
"N. c #D2B85B",
"B. c #D3B95B",
"V. c #D4B85B",
"C. c #D5B85B",
"Z. c #D6B85B",
"A. c #D2B85C",
"S. c #D2B95C",
"D. c #D3B95C",
"F. c #D3B95D",
"G. c #D3BA5C",
"H. c #D2BA5D",
"J. c #D3BA5D",
"K. c #D2B85E",
"L. c #D3B85E",
"P. c #D2B85F",
"I. c #D2B95F",
"U. c #D3B95F",
"Y. c #D3BA5F",
"T. c #D4B85C",
"R. c #D5B85C",
"E. c #D4B95C",
"W. c #D5B95C",
"Q. c #D4B95D",
"!. c #D5B95D",
"~. c #D6B85C",
"^. c #D7B85C",
"/. c #D6B95C",
"(. c #D6B95D",
"). c #D7B95D",
"_. c #D4BA5C",
"`. c #D4BA5D",
"'. c #D4BB5D",
"]. c #D5BB5D",
"[. c #D7BA5C",
"{. c #D6BA5D",
"}. c #D7BA5D",
"|. c #D4B85E",
" X c #D5B85E",
".X c #D5B95E",
"XX c #D4B85F",
"oX c #D4B95F",
"OX c #D5B95F",
"+X c #D6B85E",
"@X c #D4BA5E",
"#X c #D4BB5E",
"$X c #D5BB5E",
"%X c #D4BA5F",
"&X c #D8B95D",
"*X c #D8BA5C",
"=X c #C09169",
"-X c #C49770",
";X c #CC9D74",
":X c #D0B860",
">X c #D3B960",
",X c #D3BA60",
"<X c #D3BA61",
"1X c #D0B862",
"2X c #D4B860",
"3X c #D4B960",
"4X c #D5B960",
"5X c #D5B961",
"6X c #D4BA60",
"7X c #D4BB60",
"8X c #D5BB60",
"9X c #D4BA61",
"0X c #D5BA61",
"qX c #D4BB61",
"wX c #D6BA61",
"eX c #D4BB62",
"rX c #D5BB62",
"tX c #D5BC61",
"yX c #D5BC62",
"uX c #D5BC63",
"iX c #C1A478",
"pX c #D2A47A",
"aX c #D4B07E",
"sX c #D5B17F",
"dX c #D6B17E",
"fX c #060F82",
"gX c #071083",
"hX c #121B8D",
"jX c #1D2481",
"kX c #16208F",
"lX c #373F8B",
"zX c #353FA8",
"xX c #4F56AF",
"cX c #404BB2",
"vX c #4550B5",
"bX c #4650B4",
"nX c #825A82",
"mX c #978680",
"MX c #E1BB8A",
"NX c #E1BC8A",
"BX c #E2BE8A",
"VX c #E3BE8B",
"CX c #E4C18C",
"ZX c #E8C590",
"AX c #C3C3C3",
"SX c gray79",
/* pixels */
"9X4XXXXXXXXX Xx.C.Z.~.W.`.`._._._._.W.W.@XrXqX9X1X:X,X,X,X>X>X>XXXXXXXXXXX|.|.|.Z.Z.Z.W.D.D.K.m.m.M.",
"wX4XXX4X4X4X XC.C.C.R.W._._._._._._._._.'.yXqXqX,X,X,X,X,X,X,X,XXXXXXXXXXXXX|.|.b.b.b.R.D.D.K.m.m.M.",
"wX4XXX4XwXwXOXD.D.D.D.W._._._._._._._._.'.yXqXqX,X,X,X,X,X,X,X,XXXXXXXXXXX            R.D.D.K.m.m.M.",
"9X4XXX4X0X0XU.S.S.D.D.W._._._._._._.`.`.#XtXqXqX,X,X,X,X,X,X,X,Xy.d.XX    Q z       x.T.F.F.L.m.m.XX",
"4X4X4X,X,X,XU.D.D.D.W.D.W.{._.W._.`.7X7XqXqXqXqX9X<X,X,X,X,X,X,Xs e.4 Q b 5     G N.N.|.XXXXXXXXXXXX",
"4X4X4X,X,X,XU.D.D.D.W.D.E.{.W.W._.%XqXqXqXqXqXqX9X9X,X,X,X,X,X2 k.0 Q c %       N.N.N.|.XXXXXXXXXXXX",
"4X4X4X,X,X,XY.D.D.D.W.E.W.{.W.W._.%XqXqXqXqXqXqX9X9X,X,X,X,X,X  u.v Q z       |.A.N.A.|.XXXXXXXXXXU.",
"4X4X4X6X0X0X%X`.`._.V.~.~.^.W.D.`.#XqX9X9X        9X,X,X,X,X,X        z   z             P.>X>X>X>X>X",
"4X4X4X5XwXwX6X`.]._.V.Z.^.^.R.D.].$XqX9X9XqXqX  Q     ,X,X                Q z Q Q z z     1 ,X,X,X>X",
"XXXXXX4XwXwX6X`.].W.z.x.b.b.R.D.].$XqX9X9XqXqXqX  z Q     Q z         z     Q z z           r.,X,X>X",
"XXXXXX>X6X6X%XW._.W.R.R.b.x.R.W.`.#XqX9X9X,X,X<X<X    z Q               z     z         >X4X,X,X9X>X",
"P.XXXX>X,X,XU.W.W.W.W./.R.z.R.R.`.#XqX                z   z             z     z     4X>X3X4X,X,X9X<X",
"XXXXXX>X,X,XU.W.V.B._.{._.V.R.R.`.#XqXqXqX    z Q       z       l         z       4X4X4X4X4X,X,XqX<X",
">XXXXX>X,X,XU.W.N.B._.]._.V.R.R.`.#XqXqXqX,X,X    Q     z       T :   ..  z     z   4X4X4X4X,X,XqXqX",
"4XXXXX>X,X,XU.W.T.D._.`._.B.T.R.`.#XqXqX-     Q               ..;XP ;X..        Q z   4X4X4X,X,XqXqX",
"9XwXwXwX6XU.XXXX|.|.XX`._._.D.T._.#XyXqX,X      z     ..ZX    SXAXY ;X      z           qXqXqXqXqXqX",
"wXwXwXwX5XXXXXXXXXXX|.D.D.D.D.E._.$XyX    fX  M       ..;X  ZXSXAXiX;XSX  z   `.,XqXeXqXqXqXqXqXqXqX",
"wXwXwXwX5XXXXXXXXX|.T.N.N.N.p.a.3 w a u lXhXfX  ' D <   w I ;XBXZXZXsXpX  y y y qXeXuXeXqXqXqXqXqXqX",
"4X4X4X6X,X>X>X4XXX|.n.N.N.t U U h.VXp O.* vXfX  8.;.(   ;XU q ;XaX:.dXp s.W.J.Y.qXqXeXqXqXqXqXqXqXqX",
"4X4X4X,X,X,X>X4XXX|.n.A.N.  ..;XZXZXZX  R   fX  0.( ;.    ..;X  MX;X  +X~.R.F.Y.qXqXqXqXqXqXqXqXqXqX",
"4X4X4X,X,X,X>X4XXXXXm.T.D.  ..;XZXZXZX!             0.    ..;XZX    }.).)./.`.Y.qXqXqXqXqXqXqXqXqXqX",
"4X4X4X>X>X>X>X4XXXXX|.T.W.W.    ZXZX;Xk cX    ;XZX..    fX  ..;X> ~   ).).(.`.#XqXqXqXqXqXqXqX9X9X9X",
"4X4X4X>X>X>X4X4XXXXX|.W.W.W._._.    ;Xk cX  ;XZX..;X..  fXvX    E *.  &X).{.#X#XqXqXqXqXqXqX9X9X9X,X",
"4X4X4X4X4X4X4X4X4XOX!.D.D.D._._._.`.  k ;   ZX..;X..;X    fXvXvXE 5.    ).{.#X#XqXqXqXqXqXqX<X,X,XY.",
"4X4X4X4X4X4X4X4X4XOX!.D.D.D._._._.`.,X+.    ..;X..    ;.  vXfXfXr e vX  ).{.#X#XqXqXqXqXqXqX,X,X,XI.",
"4X4X4X4X4X4X4X4X4XOX!.D.D.D._._._.`.,X,X,X        ;.0.;.  fX    ] 7 fXvX  {.#X7XqXqXqXqXqXqX,X,X,XU.",
"4X4X4X4XXXXX4X4X4X4XOXF.D.`.`.J.J.J.#X#X#X  ;.( 0.( ;.0.;.  ;.( | W fXvX  U.6XqXqXqXqX9X9X9X6X4X4X4X",
"4X4X4X4X4X4X4X4X4X4X4XF.E.{.`.J.J.J.'.'.#X        M ( ( ;.( M (           I.,XqXqXqXqX9X9X9X5X4X4X5X",
"4X4X4XwXwXwX4X4X4X4X4XF.E.{.`.J.J.J.'.'.-   fXvXfX              ..=X;X  ,XI.,XqXqXqXqX<X<XeX9X4X4X5X",
"4XwXwX9XqXqX9X4X4X4XOXF.D.W.D.D.D._.[.[.- M     vXfX  vX  fX  7Xd o.    9X,X9X      qXqXqXqX9X4X4X5X",
"9XwXwX9XqXqX6X4X4XOX!.D.D.D.D.D.D./.*XX.^ N B N @     #   + @ l.i NXZX .$ $   -X= CX  qXqXqX6X4X4X4X",
"wXwXwX9X,X,X6X4X4XOX!.D.D.D.D._._.f g } 1.3.[ =.=.    zX  &.( <.{ F x   kXj ,.g.>.8 t.qXqXqX6X4X4X4X",
"wXwXwX,X,X,X>X4X4XOX!.D.D.D._._.  ;.;.0.0.;.;.;.(     fXvX  ;.0.( ( ( (     ;X    qXqXqXqXqX6X4X4X>X",
"wXwXwX>XI.I.>X4X4XOX!.D.D.D.`.  ( ( ( 0.0.0.0.( M   fX  vX  ( ;.0.0.;.( ( (   eXqXqXqXqXqXqX6X4X4X4X",
"wXwXwX6X,X,X>X4X4X4XOX!._.    ( 0.0.0.0.0.;.;.;.;.  fX  fX  M ( 2.0.0.0.0.;.;.  rXrXrX9X,X,X9XwXwXwX",
"9X4X4X,X,X,X>X4X4X4XOX`.  ( ;.;.;.;.;.0.` ;.( M     fX  fXfX  ;.;.;.;.0.0.0.0.  qXqXqX,X,X,X9XwXwXwX",
"U.XXXX>X,X,X>X4X4X4XOX  ( M ( 0.0.0.;.%.( M     '.  fX  fXvX  ( ] ;.0.0.0.0.;.  ,X,X,XI.I.I.6XwXwXwX",
"%X!.!.OX4X4XU.F.F.F.  ( ( M M ( ( ( ( 4.S   '.'.'.  fX  vX      M ~ ( ( ( ( ;.  4X4X>X,X,X,X4X4X4X9X",
"`._._.OX4X4XU.D.D.  ( ( ;.( M M ( ;.0.6., '.'.'.#X7X  qX    yXyX  n ( ;.;.;.;.(   4X4X,X,X,X4X4X4X5X",
"`._._.OX4X4XU.D.  ;.M M ( ;.0.0.0.0.0.Z j.'.'.'.#X7XqXqX  yXyXyX9 9.0.;.( ( 0.(   4X4X,X,X,X4X4X4X5X",
"J.G.E.Q.oXoX|.  ( ;.0.M M ( ( ( ;.( ( J W.`.`.`.`.%X,X,X7XqXeXeX6 C M ( 0.0.( M   2X>X>X>X>X>X>X>X4X",
"H.S.V.D.D.D.|.    M ;.0.0.0.;.;.( (   W.W.`.`.`.`.`.J.J.Y.qXqXqX> M ( ;.      M   XXXXXXXXXXI.I.,X>X",
"J.D.z.T.D.D.K fXfX  M ( ( M M M (   _._._._._._._.`.J.J.Y.qXqXqXi.      fXfX;.  XXXXXXXXXXXXI.I.,X>X",
"F.W.x.T.D.D.L fXbX-.. . .   M / X _._._._._._._._._.J.J.Y.qXqXqXqX0 fXfXfXvX;.  XXXXXXXXXXXXI.I.,X>X",
"!.Z.c.C.D.H jXf.nXvXfXfXh $.#.@._._._._._._._._._._.J.J.Y.qXqXqXqXw.h fXvXvX7.  XXXXXXXXXXXXI.I.,X>X",
"R.b.v.b.o & A ) V gXfXO K.`.`._._.!.F.F.!.`.'.'.'.#X7X7X7XqXqXqX9X9X  fX_ V ) m o XXXXXXXXXXXXXXU.>X",
"R.b.b.  fXxXmXfXfX(   8X]._._._._.!.XXXXU.'.'.'.#X7XqXqXqXqXqXqX9X9X  ( M fXfX0.fX  XXXXXXXXXXXXXX2X",
"R.C.  fXvXq.vXvXfX  wX8X]._._._._.!.XXXXU.'.'.'.#X7XqXqXqXqXqXqX9X9X  fXvXvXvXvX0.fX  XXXXXXXXXXXX2X",
"T.D.                6X6X%X%X@X.X.XOXXXXXU.J.J.'.#X7XqXqXqXqXqXqXqXqX                  >X>X>X>X>X>X>X",
"F.J.J.`.`.D.`.'.'.'.#X,X,X,X3X4X4X4XXXXX|.S.J.J.#X7XqXqXqXqXqXqXqXqXqXqXqXqX9X9X,X,X,X,X,X,X,X,X,X>X"
};
