/* XPM */
static char *result[] = {
/* columns rows colors chars-per-pixel */
"50 50 207 2 ",
"   c #6F2C24",
".  c #712C25",
"X  c #7B2C25",
"o  c #732E28",
"O  c #7D2E29",
"+  c #783129",
"@  c #7D312A",
"#  c #822E27",
"$  c #882C26",
"%  c #842E29",
"&  c #8A2F2B",
"*  c #932E2D",
"=  c #85322C",
"-  c #8A322D",
";  c #8B392E",
":  c #94322E",
">  c #9B322F",
",  c #873330",
"<  c #8C3531",
"1  c #8D3A32",
"2  c #943531",
"3  c #9A3532",
"4  c #943B34",
"5  c #9B3B35",
"6  c #923C38",
"7  c #9D3D39",
"8  c #A13734",
"9  c #A23A36",
"0  c #A53E3A",
"q  c #A83F3B",
"w  c #944237",
"e  c #9D4236",
"r  c #944439",
"t  c #9D433A",
"y  c #99483B",
"u  c #A3433B",
"i  c #AA433C",
"p  c #A2493D",
"a  c #AD483E",
"s  c #A0503F",
"d  c #9D4F42",
"f  c #885647",
"g  c #835847",
"h  c #875649",
"j  c #8A564A",
"k  c #865A4B",
"l  c #8B5B4C",
"z  c #955449",
"x  c #93564C",
"c  c #935A4E",
"v  c #9A5A4E",
"b  c #8D5D51",
"n  c #935C51",
"m  c #935B55",
"M  c #9B5D53",
"N  c #A74540",
"B  c #AD4641",
"V  c #A54D42",
"C  c #AD4B41",
"Z  c #B14D43",
"A  c #AC5245",
"S  c #A75844",
"D  c #AB5B46",
"F  c #AE5B48",
"G  c #B35345",
"H  c #B55947",
"J  c #B95947",
"K  c #B55549",
"L  c #B8564A",
"P  c #B55A4A",
"I  c #BA5C4C",
"U  c #A55C54",
"Y  c #AA5D5B",
"T  c #B25C51",
"R  c #BD5F50",
"E  c #8C6151",
"W  c #8D6956",
"Q  c #956153",
"!  c #9A6255",
"~  c #996758",
"^  c #946A5A",
"/  c #9A6C5C",
"(  c #B2624C",
")  c #BC634E",
"_  c #A36356",
"`  c #AB6756",
"'  c #A56459",
"]  c #A96459",
"[  c #A66C5C",
"{  c #AB6D5C",
"}  c #B66453",
"|  c #BE6451",
" . c #B66E50",
".. c #BF6A52",
"X. c #A7725E",
"o. c #AC735E",
"O. c #AC795E",
"+. c #BA7053",
"@. c #B1735F",
"#. c #BF7059",
"$. c #B1795E",
"%. c #9D6D61",
"&. c #9D7564",
"*. c #9E7E6B",
"=. c #A36E61",
"-. c #AD6C61",
";. c #B46D62",
":. c #A47263",
">. c #AD7562",
",. c #AF7B61",
"<. c #AA7768",
"1. c #A47D6D",
"2. c #A97D6E",
"3. c #B17563",
"4. c #B47C64",
"5. c #B97E66",
"6. c #B4756A",
"7. c #BA746A",
"8. c #B47D6B",
"9. c #BB7C6B",
"0. c #AA7F71",
"q. c #B37F71",
"w. c #C0644F",
"e. c #C16552",
"r. c #C26C54",
"t. c #C56D59",
"y. c #C57256",
"u. c #C87457",
"i. c #C57359",
"p. c #CA755B",
"a. c #C7785C",
"s. c #CC7B5D",
"d. c #CB7761",
"f. c #CD7C60",
"g. c #D17F61",
"h. c #C57A72",
"j. c #A4816F",
"k. c #B58265",
"l. c #BA8566",
"z. c #B4846A",
"x. c #BB856B",
"c. c #B7896C",
"v. c #BB896D",
"b. c #BF926D",
"n. c #A58472",
"m. c #AC8473",
"M. c #A48972",
"N. c #AD8A77",
"B. c #AD8E7A",
"V. c #B38472",
"C. c #BC8372",
"Z. c #B78A75",
"A. c #BC8A72",
"S. c #BC8578",
"D. c #B58C78",
"F. c #BB8B7A",
"G. c #BE9472",
"H. c #BE9977",
"J. c #B3947C",
"K. c #BA987D",
"L. c #BC9B7E",
"P. c #CE815F",
"I. c #D3865F",
"U. c #CF8261",
"Y. c #C0856B",
"T. c #C18B6D",
"R. c #D28462",
"E. c #D38A63",
"W. c #DA8C69",
"Q. c #C2936E",
"!. c #DC966B",
"~. c #DE9A6D",
"^. c #C38571",
"/. c #C48B74",
"(. c #C38679",
"). c #C38E7B",
"_. c #C39473",
"`. c #C99574",
"'. c #C49876",
"]. c #CC9B73",
"[. c #C4957A",
"{. c #CA957A",
"}. c #C49A7B",
"|. c #CA9A7B",
" X c #DE9970",
".X c #E19C6E",
"XX c #E19C70",
"oX c #C9A179",
"OX c #CCA37D",
"+X c #D2A37D",
"@X c #E6A673",
"#X c #BD9D83",
"$X c #BD9E8B",
"%X c #B8A28B",
"&X c #C29D83",
"*X c #CA9E81",
"=X c #C39F88",
"-X c #C4A285",
";X c #CDA482",
":X c #CEAA83",
">X c #D2A582",
",X c #D3A984",
"<X c #D2A489",
"1X c #DDB086",
"2X c #DDB48D",
"3X c #DBB694",
"4X c #DDB897",
/* pixels */
"_.+X^./.{ >.] =X,Xx.{.x.$.{ 3.>.n._.|._.x.3.{ 6.n.'.,Xx./.{ 3.] $X+Xx.{.x.3.{ 3.>.1._.|.`.Y.3.o.6.j.",
"a.r.) P K K N h R.r.L I r.G I q j E.) s.I I L 9 ~ u.r.) I G K 9 g E.r.P I r.P P q n E.I a.I J L 8 =.",
" .u 4 3 r - 2 h C T p q 9 - & , k P 9 > 6 5 - @ k } t 4 2 y - 2 g p J V 0 3 - - = n ( 3 2 4 2 - X h ",
"4.q.b K.>Xz.{.V.D.N.2XOXA.[.z.3.:.).*.OXG.}.k.O.-.8.8.b #X;Xk.|.z.D.J.3X-Xv.[.8.>.[ ).n.-XG.[.k.3.>.",
"q 9 < G.( r.I G u f p.) H Z P H a 8 ! s.) r.P ) u u 5 = /.P i.P G 0 h r.) H G H A Z 9 &.P.) r.P ( 0 ",
"- & . ~ P 7 - : 1 j ) - p t > - - = l a.w.P t 2 5 - -   M I 7 - 5 < j ) - t u ; - - @ l a.r.G p ; 2 ",
"|.x.v.z.V.! #X>X'.c.}.X.[.<.~ &XOX_.v.A.(.m.-X`._.|.z.z.C.D.Q &X,X'.z.'.=.8.1.~ #XOX_.z.A.S.m.OXQ._.",
"r.P H 5 2 O _.a.r.r.I I Z u - Q...u.) a 0 l u.r.r.) H I 5 3 O `.y.r.r.) I G i , _.r.u.P i i k s.r.r.",
"B = < , O @ Z.L F i p t , O . n P 6 2 = - l a.I J a 3 < - = + v.L C u C d & O o c L 1 : - = E p.I G ",
"A.T.>.c n.G.[.;X3.'.x.O.! H.Q.OX'./.>.-.1._.|.c._.v.v.O.c j.G.|.:X$.|.x.>.n L.G.OX{./.O.-.j.Q.:Xl.Q.",
"G I H q b R.u.r.r.) ) Z , >Xr.P ) r.R 3 Q E.r.y...A ) H 0 n s.s.r.r.) | C & OXa.K | t.I 5 M E.r.r.I ",
"Z : - @ l P p u 5 ; : 3 . [ G 3 s - 2 O l u.I I G a 5 - O l P t p 5 ; 5 5   ] C : s & & O n y.I I Z ",
"+XoXl.Q.@.|.{./.@.6.L._.v.`.{.`.v #X].Q.x.(.7.] &XoX+Xx.Q.3.{./.Y.;.7.#X`.Y.`.].T.U L.].Q.l.^.7.Y L.",
"y.) e.I H H C C q - >Xr.r.Z I 5 = OXr.r.i.| e = b.r.) ) H H L Z C i & ;Xr.r.Z R 5 - >Xr...+.r.u & _.",
"A 2 i w 2 - w = - . 8.u * : - - . { e : & = -   x.V 4 i r 2 : < - - . $.u : : - < o { r > < X ; . 5.",
"x.z.v.C.M.'._.Q.>X>.[.{ ] c #XQ.x.'.X.5.c L._.G.[.x.z.x.x.m.[.G._.,X3.*XX.] c L._.x.|.{ 8.n }.Q.Q.'.",
"y.r.P i k .XR.) g.r.t.H Z % `.I P | G u - _.P ) I r.t.P i v ~.R.) s.t.s.J Z & _.) P ) G i - _.J ) I ",
": > A 2 b H q C C 9 Z B 9 X H.H q a q 8 # A.e B G : 3 A > l K 0 Z a 0 Z a 9 # {.G q a 5 3 = v.y Z G ",
">.h n n ^ q.M %.U j M =.b j 2.>.%.n l :.l q.;.b l =.j c l / C.c :.U j M %.l j q.-.~ v j =.l C.;.c j ",
"i % ;XXX!.W.r.Z 9 Q @Xs.f.R.f.f.G & 4XI..XR.R.e.i.q - +X~.!.R.r.Z 9 ^ @Xs.s.R.I.s.G - 1XE.!.I.R.r.y.",
"C % _.r.r.) C i 5 j U.| Z G G 4 9 @ z.) I I C 9 i B & Q.t.r.I C a 0 h E.P G K G 4 0 # l.r.I ) G 9 i ",
"& . c > 3 = < # O k S 5 2 : % & O . X.u 3 - 3 , . & . v * 5 & & # = h F t 2 * + & O   { p : % 2 -   ",
"_._.G.<XA.U 2.*XG._.OX'.b.6.Q L.x.x.|.c._.M 1.;X_.G._.[.OX[.M n.&XQ.b.OX{.A.6.Q K.x.c.;Xl.[.M n.>XG.",
"a.i.r.f.K 4 c r.) | G t.K 7 - 8.a.t.| r.K q l W.I t.i.e.p.P 5 b t.| ) I r.P 7 - 5.a.| H r.G 9 h E.I ",
"} 7 = = @ . c | T 7 : < = - . 5.2 4 7 = , O j t.3 } 7 = = # . b e.F 3 3 2 = ,   ,.7 4 2 - - X h r.2 ",
"'.<XF./.[ ,._ $X;XC.*Xx.O.[ 3.=.1.`.[.[.V.>.>.>.*.[.<XZ.A.[ >.M %XOXx.-Xv.>.{ >.%.m.'.[.'.z.,.{ >.1.",
"a.r.| I G G 0 h W.r.H I e.H I i b E.| d.I w.K 9 / a.i...I P G u f E.r.I ) i.K | u n E.) a.I ) H 9 :.",
"} t 6 4 r = < h V P e t 4 - & @ l T 5 - < 5 = @ k } t 1 : r = 2 j p H V t 2 = = @ n P ; 3 6 : = O j ",
"6.6.j K.>Xl.`.l.C.D.2XOX8.`.5.3.-.(.1.|._.{.x.3.;.6.7.l L.+Xx.[.l.S.D.2XOXl.[.z.3.3.(.n.+XQ.`.l.3.{ ",
"i 9 < G.( y.I G u j u.) I G I K C q %.U.w.t.J ) u N 9 - Q.( t.I H i g s.) I G I G Z 9 &.g.w.r.I | q ",
"& - . ! I 7 < 4 2 h R - u t > & & # j i.r.K y 2 5 & & . M I t & 5 2 l ) - t u : & ; = l y.e.G u 6 2 ",
"{.l.x.9.q.v &X+X`.x.{.{ ^.[ M *X]._.T.A.h.m.+X`.`.{.x.x.9.q.x #X+X`.l.{.{ 9.X.M &X].`.5.^.h.j.OXQ._.",
"r.I I 7 3 @ '.s.r.y.) I G i ; G.r.s.I B q l a.r.r.e.I I 5 5 O _.f.r.r.| I C i - _.r.i.I a q b s.r.r.",
"C - - - + % A.G V u u u $ # . M F 2 3 & - l y.| L Z - - & = % v.P A 0 V p - O . l G 2 2 - & l s.I P ",
"^.A.3.l m._.}.>X3.`.x.>.n L._.;X|._.3.{ n._.*Xv._.x.A.3.x 1._.[.OX>._.z.3.v #X_.>X`.A.o.[ 0.Q.;Xz.G.",
"L I H i b R.d.r.) r.) B - ;Xt.I ) r.I 3 Q E.r.r.) H I I q c s.a.r.r.| ..C $ OXt.I r.r.I 9 _ I.r.r.) ",
"Z 2 ; + b P V y 5 1 4 4 . ` G : d - 5 X h u.) P G B 5 < X l D p p 7 = 7 4   [ K : d = : O l y.P ) G ",
";X;Xz._.>.'.z.x.-.=.#X_.v.'.&XA.n &X>X_.c.F.>.M $X;X'.c._.,.'.x.A.[ [ &X'.z._.;XA.n -X;XG.x.Z.>.M -X",
"y.) e.H P K C G i < <Xr.t.G I 9 % ;Xi.e.a...u - _.r.| e.P P K C Z i - ,Xi.t.Z J 5 < +Xr.r.#.e.u - _.",
"V 1 B 6 1 = 4 < - o 4.p 2 : = = . >.r 2 , O - . x.t 4 B 6 1 - 1 = -   x.y 3 2 & < + >.y 4 , = - . 8.",
"x.l.v.8.M.{.'.'.;X3.'.{ ' z L._.v.[.@.4.j #X_._._.c.4.A.6.0.`.`._.>X3.{.[ _ l #XH.x.|.{ 8.x L._._.[.",
"r.t.r.C E .Xs.w.R.y.p.I K & _.) I ) Z i < '.I e.| r.r.| B k  XR.) U.y.a.I G - _.e.e.) G C & `.e.) J ",
"3 > S : b K i a C q a a 0 X H.K 9 C q 3 @ A.e C G * 3 V 2 m G u C Z 9 Z a 8 O |.G u C 9 9 = l.u Z G ",
":.k E l W D.n &.M b c &.l l m.<.&.n k &.l N.<.l b :.E b k ^ F.n &.! l Q &.k l V.X.&.c l &.l m.>.l c ",
"B & ;XXX.XR.r.Z 0 ^ @Xf.s.I.s.R.G & 4XE.XXR.E...i.u - +X~.~.E.r.G 9 / @Xs.g.E.R.U.K & 1XE..XE.R.w.y.",
"B & G.r.r.I a i 3 g R.R I G Z 7 q # A.) P | G 9 q i & `.r.r.I B i 5 j I.I A K G 5 q & l...P I H 9 u ",
"$ . Q : : & = O X j S 7 : * O # X . >.t > # & < . $   n : 3 % % X X j D 5 * & X # +   { e : # * 1 . ",
"_._.'.>X{.U j.|.Q.Q.+X`._.7.M L.v.z.|.^.).U V.;XQ.Q.Q.{.>X{.U B.;Xb.Q.>X{._.7.M L.A.l.OXv.{.U j.+XQ.",
"y.i.| f.G 3 b r.| | K r.G 7 & $.y...) r.G u x E.J y.s.r.p.G 4 l r.P ) H r.K 7 - k.u.) I r.H 9 j E.H ",
"P 5 & & O   b | F 3 2 - & - . 3.> 5 4 & & # j y.> D t - % =   b | F 3 3 < % % . 4.3 2 5 % % X j r.: "
};
